<svg width="35" height="35" viewBox="0 0 35 35" fill="none" xmlns="http://www.w3.org/2000/svg">
<circle cx="17.5" cy="17.5" r="17.5" fill="#161336"/>
<circle cx="10.9542" cy="15.2788" r="3.5482" transform="rotate(-7 10.9542 15.2788)" fill="white"/>
<circle cx="21.7425" cy="13.9541" r="3.5482" transform="rotate(-7 21.7425 13.9541)" fill="white"/>
<path d="M12.3971 15.4439C12.5003 16.2847 11.9024 17.0502 11.0615 17.1535C10.2207 17.2567 9.45544 16.6585 9.35221 15.8178C9.24898 14.9771 9.84681 14.2117 10.6877 14.1085C11.5285 14.0052 12.2939 14.6032 12.3971 15.4439Z" fill="black"/>
<path d="M21.5972 12.7689C22.4381 12.6657 23.2033 13.2637 23.3065 14.1044C23.4097 14.9451 22.8119 15.7107 21.9711 15.8139C21.1301 15.9172 20.3649 15.319 20.2616 14.4783C20.1584 13.6375 20.7562 12.8722 21.5972 12.7689Z" fill="black"/>
<path d="M11.652 21.5898C11.9832 20.8054 14.8623 21.6777 17.9382 21.4403C20.9946 21.2572 23.2885 19.4915 23.8961 20.0864C24.1614 20.3518 23.9073 21.1764 22.9717 22.1451C22.0594 23.1045 20.3017 24.132 18.1803 24.291C16.0656 24.4753 14.275 23.8479 13.1547 23.2367C12.0259 22.5948 11.4972 21.9398 11.652 21.5898Z" fill="white"/>
</svg>
