<svg width="120" height="105" viewBox="-30 -35 180 180" fill="none" xmlns="http://www.w3.org/2000/svg">
<path d="M113.232 90.2482C123.583 75.464 119.991 55.0859 105.207 44.733L82.4037 28.7677L44.915 82.3081L67.7165 98.2748C82.4993 108.628 102.877 105.036 113.23 90.2514L113.232 90.2499V90.2482Z" fill="#47C3E8"/>
<path d="M74.2298 23.0454L51.4283 7.07844C36.6424 -3.27428 16.2659 0.319103 5.91309 15.1036C-4.43968 29.8893 -0.846215 50.266 13.9397 60.6187L36.7411 76.5856L74.2298 23.0454Z" fill="#3E52F9"/>
<circle cx="41.6056" cy="21.7762" r="6.61679" transform="rotate(-109.745 41.6056 21.7762)" fill="white"/>
<circle cx="53.698" cy="13.0576" r="6.61679" transform="rotate(-74 53.698 13.0576)" fill="white"/>
<path d="M34.1218 27.7677C34.8877 29.1493 34.3885 30.8901 33.0067 31.6561C31.625 32.422 29.8841 31.9229 29.1182 30.5412C28.3523 29.1594 28.8515 27.4185 30.2333 26.6527C31.6151 25.8867 33.3559 26.3859 34.1218 27.7677Z" fill="black"/>
<path d="M48.1602 16.7153C49.5419 15.9494 51.2827 16.4486 52.0487 17.8304C52.8145 19.212 52.3154 20.9528 50.9336 21.7187C49.5517 22.4847 47.8108 21.9856 47.045 20.604C46.279 19.2222 46.7783 17.4813 48.1602 16.7153Z" fill="black"/>
<path d="M37.126 38.9145C37.1507 37.3269 42.7383 36.8238 47.8904 34.2643C53.0471 31.8127 55.78 27.1573 57.2467 27.7614C57.8903 28.035 58.0269 29.6383 57.0859 31.9669C56.1795 34.2628 53.8577 37.2676 50.3006 39.0243C46.7728 40.8201 43.2386 40.9864 40.8746 40.7122C38.4745 40.3907 37.1028 39.6278 37.126 38.9145Z" fill="black"/>
</svg>
