<svg width="244" height="263" viewBox="0 0 244 263" fill="none" xmlns="http://www.w3.org/2000/svg">
<circle opacity="0.19" cx="122" cy="125" r="122" fill="#5093FE"/>
<circle opacity="0.19" cx="122" cy="125" r="111" fill="#5093FE"/>
<circle cx="122" cy="125" r="97" fill="#5093FE"/>
<path d="M70.5025 33.1869L77.1255 48.7896C78.8955 52.9596 83.7098 54.9047 87.8798 53.1346C92.0498 51.3646 93.9949 46.5503 92.2248 42.3803L85.6019 26.7776C83.8318 22.6076 79.0175 20.6625 74.8476 22.4325C70.6775 24.2026 68.7324 29.0169 70.5025 33.1869Z" fill="#3E52F9"/>
<path d="M123.308 25.4947L117.163 40.7048C115.465 44.9057 117.494 49.6852 121.695 51.3825C125.895 53.0778 130.675 51.049 132.373 46.8501L138.516 31.6408C140.213 27.4399 138.184 22.6604 133.983 20.9631C129.783 19.2678 125.004 21.2966 123.308 25.4947Z" fill="#3E52F9"/>
<path d="M32.7115 63.9504C31.0142 68.1514 33.043 72.9309 37.2439 74.6281L52.452 80.7743C56.6521 82.4696 61.4316 80.4408 63.1297 76.2418C64.825 72.0418 62.7962 67.2623 58.5973 65.5641L43.3872 59.4189C39.1891 57.7227 34.4076 59.7523 32.7115 63.9504Z" fill="#3E52F9"/>
<path d="M71.5631 164.242L81.4845 161.584L92.2368 130.494C96.1151 119.279 97.4279 110.448 94.3565 98.9857L88.9343 78.7498C87.9916 75.2316 89.9273 71.1099 93.2485 69.6129C101.762 65.7759 117.123 66.7006 123.624 90.96L130.925 118.208L164.898 109.105C174.819 106.447 193.241 107.552 191.198 134.2C191.198 134.2 208.493 149.142 195.762 166.57C195.762 166.57 209.676 182.418 191.409 197.221C191.409 197.221 205.363 222.241 167.707 232.331L120.92 244.868C117.465 245.794 113.811 245.674 110.424 244.525L91.3402 238.051L71.5631 164.242Z" fill="#3E52F9"/>
<path d="M178.661 109.003C184.717 122.019 176.77 128.182 172.699 132.749C170.647 135.052 171.59 138.632 174.434 139.825C177.738 141.211 182.849 144.074 184.202 149.742C185.757 156.254 180.823 160.922 176.174 163.164C173.174 164.611 173.945 169.22 176.917 170.725C180.097 172.336 185.066 175.054 185.514 179.43C186.086 185.032 178.659 189.016 173.174 191.706C170.124 193.201 169.421 198.043 172.554 199.355C190.237 206.761 183.488 225.604 183.488 225.604C200.753 213.987 191.408 197.221 191.408 197.221C209.676 182.418 195.762 166.57 195.762 166.57C208.493 149.142 191.198 134.2 191.198 134.2C192.444 117.941 186.072 111.191 178.661 109.003Z" fill="#2D22D3"/>
<path d="M34.4616 178.956C33.1825 174.182 36.0154 169.276 40.789 167.997L67.6568 160.798C72.4304 159.518 77.3371 162.351 78.6162 167.125L96.9966 235.721C98.2756 240.495 95.4428 245.402 90.6692 246.681L63.8013 253.88C59.0277 255.159 54.121 252.326 52.842 247.553L34.4616 178.956Z" fill="#3E29F9"/>
<path d="M71.4213 159.789L67.3115 160.89L79.0595 204.735C84.2636 224.156 72.7377 244.119 53.3165 249.323L53.8507 251.316C54.5727 254.011 57.3426 255.611 60.0373 254.889L94.4336 245.672C97.1283 244.95 98.7273 242.18 98.0052 239.485L77.6078 163.361C76.8857 160.666 74.116 159.067 71.4213 159.789Z" fill="#2D24D3"/>
<circle cx="112.315" cy="180.866" r="10.6634" transform="rotate(-17 112.315 180.866)" fill="white"/>
<circle cx="143.554" cy="171.315" r="10.6634" transform="rotate(-17 143.554 171.315)" fill="white"/>
<path d="M116.672 180.602C117.416 183.036 116.046 185.614 113.612 186.358C111.177 187.103 108.6 185.732 107.855 183.297C107.111 180.863 108.481 178.286 110.916 177.541C113.351 176.797 115.928 178.167 116.672 180.602Z" fill="black"/>
<path d="M142.505 167.884C144.94 167.139 147.517 168.509 148.261 170.944C149.005 173.378 147.635 175.956 145.2 176.7C142.766 177.445 140.188 176.074 139.444 173.64C138.7 171.205 140.07 168.628 142.505 167.884Z" fill="black"/>
<path d="M117.674 199.18C118.244 196.686 127.221 197.765 136.2 195.457C145.151 193.32 151.018 186.897 153.127 188.341C154.051 188.988 153.729 191.561 151.465 194.916C149.266 198.232 144.6 202.19 138.405 203.768C132.242 205.417 126.615 204.494 122.981 203.27C119.305 201.959 117.398 200.297 117.674 199.18Z" fill="black"/>
</svg>
