<?xml version="1.0" encoding="UTF-8"?><svg id="_レイヤー_2" xmlns="http://www.w3.org/2000/svg" viewBox="0 0 90.18 91.71"><defs><style>.cls-1{fill:#e9952d;}.cls-2{fill:#fff;}.cls-3{fill:#aa6a2a;}.cls-4{fill:#cc7427;}.cls-5{fill:#354ef2;}.cls-6{fill:#2f3fc5;}</style></defs><g id="_レイヤー_1-2"><path id="_パス_9040" class="cls-3" d="m28.71,5.37c-.34-1.93.95-3.76,2.87-4.1,1.93-.34,3.76.95,4.1,2.87.34,1.93-.95,3.76-2.87,4.1s-3.76-.95-4.1-2.87c0,0,0,0,0,0Z"/><path id="_パス_9041" class="cls-3" d="m47.03,15.98c-4.09-.27-8.51-1.55-11.6-4.34-1.46-1.22-2.51-2.86-2.98-4.71-.09-.64.35-1.23.99-1.32.3-.04.61.03.86.21.51.39.83,1,1.32,1.41,1.69,1.29,3.77,1.98,5.9,1.93,1.19.02,2.37-.08,3.54-.3.73-.23,1.49-.33,2.26-.28,4.21.69,3.96,7.04-.29,7.4Z"/><path id="_パス_9042" class="cls-1" d="m42.59,2.93c-.34-1.93-2.18-3.21-4.1-2.87-1.93.34-3.21,2.18-2.87,4.1.34,1.93,2.18,3.21,4.1,2.87s3.21-2.18,2.87-4.1h0Z"/><path id="_パス_9043" class="cls-4" d="m40.15,4.88c-1.5.32-3.72.24-4.47-1.39-.04-.08-.07-.16-.1-.25-.03.3-.01.61.04.91.34,1.93,2.17,3.21,4.1,2.87,1.82-.32,3.09-1.99,2.91-3.82-.57.87-1.46,1.47-2.48,1.68Z"/><path id="_パス_9044" class="cls-1" d="m27.05,11.96c.69-.18,1.48-.16,2.19-.32,1.18-.24,2.33-.61,3.42-1.12,1.96-.82,3.55-2.35,4.42-4.29.2-.52.35-1.16.91-1.41.6-.25,1.3.03,1.55.64.07.18.1.37.09.57.02,2.15-.6,4.27-1.78,6.06-1.27,1.84-2.87,3.44-4.71,4.71-1.38.98-3.28,2.46-5.05,2.49-4.27.07-5.16-6.22-1.03-7.33h0Z"/><path id="_パス_9045" class="cls-1" d="m79.78,21.49c-2.39-3.96-10.37-13.43-13.28-12.91L8.18,18.86C5.27,19.37,1.01,30.99.12,35.53c-.89,4.54,3.58,15.11,3.58,15.11l35.64-25.57,42.24,11.84s.59-11.46-1.8-15.42Z"/><path id="_パス_9046" class="cls-4" d="m80.2,30.46c-2.39-6.24-5.94-13.65-13.28-14.82-4.58-.62-9.23-.48-13.77.42-5.32.91-29.36,4.81-35.74,6.47-3.35.77-6.49,2.26-9.2,4.37-1.27,1.77-2.42,3.64-3.42,5.58-.34.78-.67,1.58-.96,2.38-.07.22-.14.43-.2.66l-.03.09c.21,3.48-.1,6.97-.94,10.36,0,.1,0,.2.01.3.14,1,.31,2,.48,3,.33.84.54,1.36.54,1.36l35.64-25.57,42.24,11.84s.04-.7.05-1.81c-.38-1.57-.86-3.12-1.43-4.64Z"/><path id="_パス_9047" class="cls-5" d="m81.33,35.52c-4.46-11.64-12.7-19.29-18.88-18.2s-23.67,3.6-23.84,3.62h0c-.17.04-17.49,3.67-23.64,4.75S3.67,36.79,3.45,49.25c-.21,12.46-3.86,26.93,6.06,36.08,9.92,9.15,28.4,6.43,41.19,4.18h0c12.79-2.26,31.08-6.03,37.28-18.02,6.19-11.99-2.19-24.33-6.65-35.97Z"/><path id="_パス_9048" class="cls-6" d="m15.51,27.66c3.31-.68,6.67-1.15,10.04-1.4,1.36-.13,2.71-.28,4.07-.45,6.39-1.31,12.71-2.98,19.18-3.91,6.43-.92,13.46-1.64,19.85.02,2.33.57,4.56,1.53,6.59,2.81-.02-.06-.04-.11-.06-.17-4.08-5.11-8.82-7.93-12.73-7.24-6.15,1.08-23.68,3.6-23.84,3.62h0c-.17.04-17.49,3.67-23.64,4.75-2.38.57-4.46,2-5.84,4.02-.03.29-.05.57-.07.86,1.58-1.71,4.38-2.45,6.46-2.92Z"/><path id="_パス_9049" class="cls-6" d="m82.18,37.64c.15.73.29,1.45.41,2.18.7,4.53.54,9.36-1.47,13.56-.84,2.1-2.15,3.97-3.83,5.49-1.7,1.21-3.51,2.27-5.4,3.17-3.54,1.88-6.16,5.53-10.36,6.06-3.81.48-7.6-.95-11.38-.41-4.84.7-9.12,3.22-13.86,4.33-3.3.82-6.74.88-10.06.19-13.16-2.86-20.26-17.27-20.71-29.73-.07-1.93-.05-3.9.05-5.88-1.36,4.08-2.07,8.34-2.11,12.64-.21,12.46-3.86,26.93,6.06,36.08,9.92,9.15,28.4,6.43,41.18,4.18h0c12.79-2.26,31.08-6.03,37.28-18.02,5.82-11.27-1.23-22.84-5.8-33.86Z"/><g id="_グループ_3356"><circle id="_楕円形_178" class="cls-2" cx="35.99" cy="41.77" r="5.35"/><circle id="_楕円形_179" class="cls-2" cx="52.37" cy="41.2" r="5.35"/><path id="_パス_8864" d="m38.14,42.21c.04,1.28-.95,2.35-2.23,2.39s-2.35-.95-2.39-2.23.95-2.35,2.23-2.39h0c1.28-.04,2.35.95,2.39,2.23Z"/><path id="_パス_8865" d="m52.31,39.4c1.28-.04,2.35.95,2.39,2.23s-.95,2.35-2.23,2.39-2.35-.95-2.39-2.23h0c-.04-1.28.95-2.35,2.23-2.39Z"/><path id="_パス_8866" d="m36.21,51.34c.6-1.13,4.81.55,9.46.6,4.62.13,8.29-2.22,9.13-1.25.36.43-.13,1.64-1.66,2.97-2.11,1.72-4.76,2.64-7.48,2.6-2.64-.01-5.21-.79-7.41-2.24-1.61-1.12-2.32-2.17-2.04-2.67Z"/></g></g></svg>