<?xml version="1.0" encoding="UTF-8"?><svg id="_レイヤー_2" xmlns="http://www.w3.org/2000/svg" viewBox="0 0 244 244"><defs><style>.cls-1{fill:#f1a01a;}.cls-2{fill:#fff;}.cls-3{fill:#b87523;}.cls-4{fill:#d87e17;}.cls-5{fill:#3e52f9;}.cls-6{fill:#2f3fc5;}.cls-7,.cls-8{fill:#5093fe;}.cls-8{isolation:isolate;opacity:.19;}</style></defs><g id="_レイヤー_1-2"><g id="_グループ_3230"><circle id="_楕円形_174" class="cls-8" cx="122" cy="122" r="122"/><circle id="_楕円形_175" class="cls-8" cx="122" cy="122" r="111"/><circle id="_楕円形_176" class="cls-7" cx="122" cy="122" r="97"/></g><path id="_パス_9040" class="cls-3" d="m96.75,70.28c-.68-3.84,1.89-7.5,5.73-8.17,3.84-.68,7.5,1.89,8.17,5.73.68,3.84-1.89,7.5-5.73,8.17-3.84.68-7.5-1.88-8.17-5.72h0Z"/><path id="_パス_9041" class="cls-3" d="m133.26,91.42c-8.14-.55-16.96-3.08-23.11-8.66-2.57-2.33-5.35-5.82-5.94-9.38-.18-1.28.71-2.46,1.98-2.64.6-.09,1.21.07,1.7.42,1.02.77,1.65,2,2.64,2.81,3.36,2.76,7.46,3.74,11.76,3.86,2.37.04,4.73-.15,7.05-.6,1.56-.28,2.89-.83,4.49-.56,8.39,1.38,7.89,14.03-.58,14.75Z"/><path id="_パス_9042" class="cls-1" d="m124.41,65.41c-.68-3.84-4.34-6.4-8.18-5.72-3.84.68-6.4,4.34-5.72,8.18.68,3.84,4.34,6.4,8.18,5.72,3.84-.68,6.4-4.34,5.72-8.17h0Z"/><path id="_パス_9043" class="cls-4" d="m119.54,69.31c-2.98.62-7.42.47-8.9-2.77-.07-.15-.14-.32-.2-.49-.32,3.88,2.56,7.29,6.44,7.62,3.88.32,7.29-2.56,7.62-6.44.04-.42.03-.85,0-1.27-1.14,1.73-2.91,2.94-4.94,3.35Z"/><path id="_パス_9044" class="cls-1" d="m93.44,83.42c1.38-.36,2.95-.32,4.37-.63,2.35-.48,4.64-1.23,6.82-2.23,3.93-1.9,7.09-4.46,8.81-8.54.4-1.04.69-2.32,1.81-2.81,1.2-.5,2.58.08,3.08,1.28.15.35.2.74.17,1.12.05,4.29-1.18,8.5-3.55,12.08-2.54,3.67-5.71,6.85-9.38,9.39-2.75,1.95-6.54,4.9-10.07,4.96-8.51.14-10.27-12.39-2.06-14.62h0Z"/><path id="_パス_9045" class="cls-1" d="m198.52,102.4c-4.76-7.9-20.66-26.76-26.47-25.74l-116.22,20.49c-5.81,1.02-14.29,24.19-16.07,33.24s7.14,30.1,7.14,30.1l71.03-50.95,84.17,23.59s1.18-22.83-3.58-30.73Z"/><path id="_パス_9046" class="cls-4" d="m199.37,120.28c-4.77-12.44-11.83-27.21-26.46-29.54-9.3-1.48-18.27-.72-27.44.84-10.6,1.81-58.5,9.58-71.23,12.9-6.7,1.75-13.25,4.46-18.33,8.72-2.54,3.53-4.82,7.24-6.82,11.11-.68,1.56-1.33,3.14-1.92,4.75-.14.43-.28.86-.4,1.31-.02.06-.03.12-.05.18.17,6.96.04,13.98-1.88,20.65,0,.2.01.4.02.61.28,2,.63,3.99.95,5.99.65,1.68,1.09,2.7,1.09,2.7l71.03-50.95,84.17,23.59s.07-1.39.11-3.6c-.76-3.14-1.71-6.22-2.85-9.25Z"/><path id="_パス_9047" class="cls-5" d="m201.62,130.37c-8.89-23.2-25.31-38.44-37.62-36.27s-47.18,7.17-47.51,7.21h-.02c-.33.07-34.86,7.31-47.12,9.47s-22.53,22.11-22.95,46.95-7.7,53.66,12.07,71.9,56.6,12.82,82.09,8.33h.02c25.49-4.5,61.95-12.01,74.29-35.9s-4.36-48.49-13.25-71.69Z"/><path id="_パス_9048" class="cls-6" d="m70.45,114.68c6.61-1.35,13.29-2.28,20.01-2.79,2.71-.26,5.41-.56,8.11-.89,12.74-2.61,25.33-5.95,38.23-7.79,12.82-1.83,26.83-3.26,39.55.04,4.65,1.14,9.09,3.04,13.13,5.6-.04-.11-.07-.23-.11-.34-8.14-10.19-17.58-15.81-25.37-14.43-12.25,2.16-47.18,7.17-47.51,7.21h-.02c-.33.07-34.86,7.31-47.12,9.47-4.23.75-8.22,3.59-11.64,8.02-.05.57-.1,1.14-.15,1.71,3.15-3.41,8.73-4.88,12.88-5.83Z"/><path id="_パス_9049" class="cls-6" d="m203.31,134.58c.3,1.45.58,2.9.81,4.35,1.4,9.02,1.07,18.66-2.92,27.03-1.87,3.93-4.14,8.21-7.63,10.94-3.32,2.6-7.07,4.34-10.77,6.31-7.06,3.75-12.28,11.02-20.64,12.08-7.58.97-15.14-1.9-22.69-.81-9.65,1.4-18.18,6.41-27.61,8.63-6.57,1.63-13.43,1.76-20.06.39-26.25-5.71-40.4-34.43-41.28-59.27-.14-3.85-.1-7.77.08-11.71-2.7,8.13-4.12,16.63-4.2,25.19-.42,24.84-7.7,53.66,12.07,71.9s56.6,12.82,82.09,8.33h.02c25.49-4.5,61.95-12.01,74.29-35.9,11.6-22.45-2.45-45.52-11.56-67.47Z"/><g id="_グループ_3237"><circle id="_楕円形_178" class="cls-2" cx="111.26" cy="142.82" r="10.66"/><circle id="_楕円形_179" class="cls-2" cx="143.9" cy="141.68" r="10.66"/><path id="_パス_8864" d="m115.54,143.7c.09,2.54-1.9,4.68-4.45,4.77s-4.68-1.9-4.77-4.45,1.9-4.68,4.45-4.77h0c2.54-.09,4.68,1.9,4.77,4.45Z"/><path id="_パス_8865" d="m143.78,138.1c2.54-.09,4.68,1.9,4.77,4.45s-1.9,4.68-4.45,4.77-4.68-1.9-4.77-4.45h0c-.09-2.54,1.9-4.68,4.45-4.77Z"/><path id="_パス_8866" d="m111.69,161.9c1.2-2.26,9.59,1.1,18.86,1.2,9.2.25,16.53-4.43,18.19-2.49.72.86-.25,3.27-3.31,5.92-4.2,3.43-9.48,5.26-14.91,5.17-5.25-.03-10.38-1.58-14.77-4.47-3.22-2.22-4.63-4.31-4.07-5.33Z"/></g></g></svg>