<svg width="18" height="18" viewBox="0 0 11 18" fill="none" xmlns="http://www.w3.org/2000/svg">
<path d="M7.70577 9.08564C7.79848 8.93861 7.69302 8.74702 7.51906 8.74702H6.16738H5.94118L6.56246 6.5153C6.6307 6.27043 6.29916 6.12339 6.16354 6.33836L4.64248 8.74702L4.04513 9.69349C3.95248 9.84028 4.05794 10.0319 4.23159 10.0319H5.58333H5.80971L5.18813 12.2636C5.11996 12.5085 5.4518 12.6555 5.58742 12.4408L7.70577 9.08564Z" fill="white"/>
<path d="M9.46643 1.44684H8.0014V1.00687C8.0014 0.45166 7.54974 0 6.99457 0H4.75543C4.20026 0 3.7486 0.45166 3.7486 1.00687V1.44684H2.28357C1.43781 1.44684 0.75 2.13467 0.75 2.98068V15.7983C0.75 16.644 1.43781 17.3319 2.28357 17.3319H9.46643C10.3122 17.3319 11 16.644 11 15.7983V2.98068C11 2.13467 10.3122 1.44684 9.46643 1.44684ZM5.87512 13.4533C3.63422 13.4533 1.81122 11.6303 1.81122 9.38965C1.81122 7.14871 3.63422 5.32571 5.87512 5.32571C8.11591 5.32571 9.93878 7.14871 9.93878 9.38965C9.93878 11.6303 8.11591 13.4533 5.87512 13.4533Z" fill="white"/>
</svg>
