<svg width="21" height="21" viewBox="0 0 21 21" fill="none" xmlns="http://www.w3.org/2000/svg">
<path d="M20.309 3.25729C20.309 1.9931 19.2814 0.965576 18.0172 0.965576H2.60068C1.33649 0.965576 0.30896 1.9931 0.30896 3.25729V18.6739C0.30896 19.938 1.33649 20.9656 2.60068 20.9656H18.0172C19.2814 20.9656 20.309 19.938 20.309 18.6739V3.25729Z" fill="#1B192E"/>
<path d="M15.37 7.67394C15.6952 7.99915 15.6952 8.52483 15.37 8.8502L9.96261 14.2575C9.80038 14.4197 9.58743 14.5013 9.37447 14.5013C9.16152 14.5013 8.94857 14.4197 8.78635 14.2575L6.08273 11.5538C5.75738 11.2286 5.75738 10.7028 6.08273 10.3776C6.40794 10.0522 6.93362 10.0522 7.25898 10.3776L9.37447 12.4931L14.1937 7.67394C14.519 7.34859 15.0446 7.34859 15.37 7.67394Z" fill="#47C3E8"/>
</svg>
