<svg width="14" height="14" viewBox="0 0 14 14" fill="none" xmlns="http://www.w3.org/2000/svg">
<path d="M12.5837 6.27121C12.6383 6.09671 12.6682 5.91542 12.6725 5.73263L12.6725 3.19814C12.6725 1.39232 9.94788 0.0300293 6.33623 0.0300293C2.72458 0.0300293 0 1.39232 0 3.19814V5.73263C0.0710369 6.59114 0.585132 7.35027 1.35595 7.73488C1.29778 7.90633 1.26782 8.08608 1.26725 8.26712L1.26725 10.8016C1.26725 12.6074 3.99182 13.9697 7.60347 13.9697C11.2151 13.9697 13.9397 12.6074 13.9397 10.8016V8.26712C13.8702 7.40965 13.3553 6.65174 12.5837 6.27121V6.27121ZM6.33623 8.90075C8.77567 8.90075 10.8096 8.26712 11.8741 7.31669C12.381 7.62083 12.6725 7.95031 12.6725 8.26712C12.6725 9.04014 10.6955 10.168 7.60347 10.168C4.51139 10.168 2.59152 9.07182 2.53449 8.2988C3.75773 8.71642 5.04381 8.92005 6.33623 8.90074L6.33623 8.90075ZM6.33623 1.29727C9.4283 1.29727 11.4052 2.42512 11.4052 3.19814C11.4052 3.97116 9.4283 5.09901 6.33623 5.09901C3.24415 5.09901 1.26725 3.97116 1.26725 3.19814C1.26725 2.42512 3.24415 1.29727 6.33623 1.29727H6.33623ZM1.26725 5.13703C2.80833 6.01369 4.56476 6.43962 6.33623 6.36626C8.10769 6.43962 9.86412 6.01369 11.4052 5.13703L11.4052 5.73263C11.4052 6.50565 9.4283 7.6335 6.33623 7.6335C3.24415 7.6335 1.26725 6.50565 1.26725 5.73263L1.26725 5.13703ZM7.60347 12.7025C4.51139 12.7025 2.53449 11.5746 2.53449 10.8016V10.206C4.07558 11.0827 5.83201 11.5086 7.60347 11.4352C9.37494 11.5086 11.1314 11.0827 12.6725 10.206L12.6725 10.8016C12.6725 11.5746 10.6955 12.7025 7.60347 12.7025Z" fill="white"/>
</svg>
