<svg width="32" height="29" viewBox="0 0 32 29" fill="none" xmlns="http://www.w3.org/2000/svg">
<path d="M15.9793 11.5079C15.6213 11.5079 15.3301 11.7991 15.3301 12.1571V13.7102C15.3301 14.0682 15.6213 14.3594 15.9793 14.3594C16.3372 14.3594 16.6284 14.0682 16.6284 13.7102V12.1571C16.6284 11.7991 16.3372 11.5079 15.9793 11.5079Z" fill="white" fill-opacity="0.294118"/>
<path d="M9.96692 15.5061C10.1429 15.8155 10.5433 15.9187 10.8527 15.7427C11.1621 15.5668 11.2653 15.1663 11.0893 14.857L10.3067 13.504C10.1307 13.1945 9.7303 13.0853 9.42087 13.2674C9.11145 13.4433 9.00831 13.8437 9.18426 14.1532L9.96692 15.5061Z" fill="white" fill-opacity="0.294118"/>
<path d="M4.85837 18.9521L6.23561 19.7469C6.54503 19.9289 6.93939 19.8197 7.12141 19.5103C7.29736 19.2009 7.19421 18.8066 6.88479 18.6245L5.50755 17.8297C5.19813 17.6538 4.80376 17.7569 4.62176 18.0663C4.44582 18.3818 4.54895 18.7762 4.85837 18.9521Z" fill="white" fill-opacity="0.294118"/>
<path d="M25.7231 19.747L26.979 19.025C27.2884 18.849 27.3976 18.4487 27.2156 18.1392C27.0397 17.8298 26.6453 17.7206 26.3299 17.9026L25.074 18.6246C24.7645 18.8005 24.6554 19.201 24.8373 19.5104C25.0193 19.8198 25.4137 19.923 25.7231 19.747Z" fill="white" fill-opacity="0.294118"/>
<path d="M21.112 15.7487C21.4214 15.9307 21.8158 15.8215 21.9978 15.5121L22.7077 14.2805C22.8837 13.9711 22.7805 13.5767 22.4711 13.3946C22.1617 13.2187 21.7673 13.3219 21.5853 13.6313L20.8754 14.8629C20.6934 15.1723 20.8026 15.5667 21.112 15.7487Z" fill="white" fill-opacity="0.294118"/>
<path d="M30.8802 21.9129H24.9344C23.7756 17.9511 20.1718 15.2209 15.9855 15.2209C11.7992 15.2209 8.19531 17.9511 7.03649 21.9129H1.115C0.757041 21.9129 0.46582 22.2041 0.46582 22.5621C0.46582 22.9201 0.757041 23.2113 1.115 23.2113H30.8863C31.2442 23.2113 31.5354 22.9201 31.5354 22.5621C31.5354 22.2041 31.2382 21.9129 30.8802 21.9129ZM8.38339 21.9129C9.4876 18.6974 12.509 16.5132 15.9855 16.5132C19.4619 16.5132 22.4773 18.6974 23.5875 21.9129H8.38339Z" fill="white" fill-opacity="0.294118"/>
<path d="M26.8273 24.8069H5.16774C4.80978 24.8069 4.51855 25.0981 4.51855 25.4561C4.51855 25.8141 4.80978 26.1053 5.16774 26.1053H26.8334C27.1913 26.1053 27.4825 25.8141 27.4825 25.4561C27.4765 25.0921 27.1852 24.8069 26.8273 24.8069Z" fill="white" fill-opacity="0.294118"/>
<path d="M21.7315 27.6949H10.2586C9.9006 27.6949 9.60938 27.9861 9.60938 28.3441C9.60938 28.702 9.9006 28.9932 10.2586 28.9932H21.7315C22.0894 28.9932 22.3806 28.702 22.3806 28.3441C22.3806 27.9861 22.0894 27.6949 21.7315 27.6949Z" fill="white" fill-opacity="0.294118"/>
<path d="M15.5248 7.05456C15.7736 7.32151 16.1983 7.32757 16.4592 7.07276L18.2975 5.23443C18.5523 4.97961 18.5523 4.57311 18.2975 4.31829C18.0426 4.06347 17.6362 4.06347 17.3813 4.31829L16.6472 5.05241V1.1634C16.6472 0.805441 16.356 0.514221 15.9981 0.514221C15.6401 0.514221 15.3489 0.805441 15.3489 1.1634V5.05241L14.6148 4.31829C14.3599 4.06347 13.9534 4.06347 13.6986 4.31829C13.4438 4.57311 13.4499 4.97961 13.6986 5.23443L15.5248 7.05456Z" fill="white" fill-opacity="0.294118"/>
</svg>
