<svg width="100" height="200" viewBox="0 0 245 244" fill="none" xmlns="http://www.w3.org/2000/svg">
<circle opacity="0.19" cx="122" cy="122" r="122" fill="#5093FE"/>
<circle opacity="0.19" cx="122" cy="122" r="111" fill="#5093FE"/>
<circle cx="122" cy="122" r="97" fill="#5093FE"/>
<path d="M149.961 46.4784L154.992 70.1481L73.9259 87.3792L68.9619 63.6953L35.3337 70.8432C32.2834 71.4915 30.3358 74.4896 30.9842 77.5399L34.8414 95.6868L54.7667 189.428C55.415 192.478 58.4138 194.425 61.4641 193.777L89.5689 187.803L176.091 169.412L209.495 162.312L209.719 162.264L183.589 39.3305L149.961 46.4784Z" fill="#2D24D3"/>
<path d="M72.7875 185.597L52.8622 91.8564L49.0049 73.7094C48.3566 70.6592 50.3035 67.6612 53.3537 67.0129L50.3955 67.6417C47.3452 68.29 45.3983 71.288 46.0467 74.3382L49.9039 92.4852L69.8292 186.226C70.4775 189.276 73.4756 191.224 76.5259 190.576L79.4841 189.947C76.4339 190.595 73.4358 188.648 72.7875 185.597Z" fill="#1D19BC"/>
<path d="M169.293 57.3723L92.0532 73.7901C88.0891 74.6327 84.1928 72.1024 83.3503 68.1385V68.1385C82.5077 64.1745 85.038 60.2782 89.002 59.4356L166.242 43.0177C170.206 42.1751 174.102 44.7055 174.945 48.6695V48.6695C175.787 52.6334 173.257 56.5297 169.293 57.3723Z" fill="#004793"/>
<path d="M166.451 48.586L91.0756 64.6076C89.9864 64.8391 88.9159 64.1439 88.6843 63.0546V63.0546C88.4528 61.9654 89.1481 60.8948 90.2373 60.6633L165.613 44.6417C166.702 44.4103 167.773 45.1055 168.004 46.1947V46.1947C168.236 47.284 167.54 48.3546 166.451 48.586Z" fill="white"/>
<path d="M183.589 39.3306L186.992 55.3392C187.891 59.57 185.19 63.7294 180.959 64.6286L109.76 79.7626C105.528 80.662 101.369 77.9608 100.47 73.7299L97.0674 57.7213L68.9618 63.6954C65.9116 64.3437 63.964 67.3418 64.6124 70.3921L68.4696 88.539L88.3949 182.28C89.0432 185.33 92.042 187.278 95.0922 186.629L237.825 156.29C240.875 155.642 242.823 152.643 242.174 149.593L218.392 37.7053C217.743 34.655 214.745 32.7082 211.695 33.3566L183.589 39.3306Z" fill="#3E52F9"/>
<path d="M98.0563 107.182C96.7736 101.148 100.626 95.2165 106.66 93.9339L189.555 76.314C195.589 75.0314 201.52 78.8833 202.803 84.9175L213.529 135.377C214.811 141.412 210.959 147.343 204.925 148.626L122.03 166.246C115.996 167.528 110.064 163.676 108.782 157.642L98.0563 107.182Z" fill="#2D24D3"/>
<path d="M194.593 82.918L206.842 140.544C207.704 144.6 205.116 148.585 201.067 149.446L118.447 167.007C114.391 167.87 110.406 165.281 109.543 161.225L97.2947 103.6C96.4326 99.5434 99.0208 95.5578 103.077 94.6957L185.696 77.1344C189.746 76.2736 193.731 78.862 194.593 82.918Z" fill="#3E29F9"/>
<rect x="144.343" y="106.801" width="15.3923" height="33.0852" transform="rotate(-12 144.343 106.801)" fill="white"/>
<rect x="166.278" y="135.963" width="15.3923" height="33.0852" transform="rotate(78 166.278 135.963)" fill="white"/>
<path d="M121.055 184.885L103.47 188.623C101.475 189.047 99.5138 187.774 99.0898 185.779V185.779L123.899 180.506V180.506C124.323 182.501 123.049 184.461 121.055 184.885Z" fill="#1F323F"/>
<path d="M231.807 161.344L214.222 165.082C212.228 165.506 210.267 164.233 209.843 162.238V162.238L234.652 156.965V156.965C235.076 158.959 233.802 160.92 231.807 161.344Z" fill="#1F323F"/>
<path d="M84.8035 192.591L67.2193 196.328C65.2242 196.752 63.2633 195.479 62.8394 193.485V193.485L87.6482 188.211V188.211C88.0722 190.206 86.7987 192.167 84.8035 192.591Z" fill="#111E28"/>
<path d="M195.557 169.049L177.972 172.787C175.977 173.211 174.016 171.938 173.592 169.943V169.943L198.401 164.67V164.67C198.825 166.665 197.551 168.626 195.557 169.049Z" fill="#111E28"/>
</svg>
