<?xml version="1.0" encoding="UTF-8"?><svg id="_レイヤー_2" xmlns="http://www.w3.org/2000/svg" viewBox="0 0 169.02 206.91"><defs><style>.cls-1{fill:#fff;}.cls-2{fill:#f38760;}.cls-3{fill:#3230f1;}.cls-4{fill:#d9d9d9;}.cls-5{fill:#131c23;}.cls-6{fill:#2529c7;}.cls-7{fill:#1e2c37;}.cls-8{fill:#1d19bc;}.cls-9{fill:#0e4084;}.cls-10{fill:#3e52f9;}</style></defs><g id="_レイヤー_2-2"><path id="_パス_8877" class="cls-6" d="m108.36,92.79v21.35H35.25l.06-21.35H4.98c-2.75,0-4.98,2.23-4.98,4.98h0v100.91c0,2.75,2.23,4.98,4.98,4.98h133.71v-110.87h-30.33Z"/><g id="_グループ_3241"><path id="_パス_8878" class="cls-8" d="m16.25,198.67v-100.91c0-2.75,2.23-4.98,4.98-4.98h-2.67c-2.75,0-4.98,2.23-4.98,4.98h0v100.91c0,2.75,2.23,4.98,4.98,4.98h2.67c-2.75,0-4.98-2.23-4.98-4.98Z"/></g><path id="_パス_8879" class="cls-9" d="m123.05,105.73H53.39c-3.58,0-6.47-2.9-6.47-6.47h0c0-3.57,2.9-6.47,6.47-6.47h69.66c3.58,0,6.47,2.9,6.47,6.47h0c0,3.58-2.9,6.47-6.48,6.47Z"/><path id="_パス_8880" class="cls-1" d="m122.21,97.63H54.23c-.98,0-1.78-.8-1.78-1.78h0c0-.98.8-1.78,1.78-1.78h67.98c.98,0,1.78.8,1.78,1.78h0c0,.98-.8,1.78-1.78,1.78Z"/><path id="_パス_8881" class="cls-10" d="m138.69,92.79v14.44c0,3.82-3.09,6.91-6.91,6.91h-64.21c-3.82,0-6.91-3.09-6.91-6.91h0v-14.44h-25.35c-2.75,0-4.98,2.23-4.98,4.98h0v100.91c0,2.75,2.23,4.98,4.98,4.98h128.73c2.75,0,4.98-2.23,4.98-4.98h0v-100.91c0-2.75-2.23-4.98-4.98-4.98h-25.35Z"/><rect id="_長方形_2244" class="cls-6" x="52.44" y="125.79" width="94.47" height="65.22" rx="22.34" ry="22.34"/><path id="_パス_8882" class="cls-3" d="m140.19,132.41v51.97c0,3.66-2.96,6.62-6.62,6.62H59.07c-3.66,0-6.62-2.96-6.62-6.62h0v-51.97c0-3.66,2.96-6.62,6.62-6.62h74.52c3.65,0,6.61,2.97,6.61,6.62Z"/><g id="_グループ_3242"><rect id="_長方形_2245" class="cls-1" x="92.45" y="143.81" width="13.58" height="29.19"/><rect id="_長方形_2246" class="cls-1" x="84.65" y="151.61" width="29.19" height="13.58"/></g><path id="_パス_8883" class="cls-7" d="m58.03,206.91h-15.86c-1.8,0-3.26-1.46-3.26-3.26h0s22.38,0,22.38,0c0,1.8-1.46,3.26-3.25,3.26Z"/><path id="_パス_8884" class="cls-7" d="m157.92,206.91h-15.86c-1.8,0-3.26-1.46-3.26-3.26h0s22.37,0,22.37,0c0,1.8-1.46,3.26-3.26,3.26Z"/><path id="_パス_8885" class="cls-5" d="m25.34,206.91h-15.86c-1.8,0-3.26-1.46-3.26-3.26h0s22.37,0,22.37,0c0,1.8-1.46,3.26-3.26,3.26Z"/><path id="_パス_8886" class="cls-5" d="m125.23,206.91h-15.86c-1.8,0-3.26-1.46-3.26-3.26h0s22.37,0,22.37,0c0,1.8-1.46,3.26-3.26,3.26Z"/><circle id="_楕円形_180" class="cls-2" cx="88.72" cy="92.69" r="19.37"/><path id="_パス_8887" class="cls-2" d="m101.42,78.1c7.36,0,13.33,6.53,13.33,14.58h-13.33v-14.58Z"/><rect id="_長方形_2247" class="cls-2" x="74.98" y="40.91" width="26.48" height="42.94"/><rect id="_長方形_2248" class="cls-1" x="69.35" width="36.65" height="59.88"/><circle id="_楕円形_181" class="cls-4" cx="79.57" cy="29.94" r="4.6"/><circle id="_楕円形_182" class="cls-4" cx="79.57" cy="47.73" r="4.6"/></g></svg>