<svg width="28" height="26" viewBox="0 0 28 26" fill="none" xmlns="http://www.w3.org/2000/svg">
<path d="M16.7834 8.01621C16.6611 7.91847 16.5065 7.87031 16.3503 7.88121H13.9879L16.2097 5.40065L16.4178 5.17003L16.5247 5.03502C16.5618 4.98285 16.5921 4.92611 16.6147 4.86628C16.6402 4.8018 16.6535 4.73311 16.6541 4.66378C16.6697 4.49975 16.5884 4.34155 16.4459 4.25879C16.2611 4.174 16.0584 4.13533 15.8553 4.14629H13.0935C12.9461 4.13624 12.8002 4.18026 12.6829 4.27005C12.586 4.35251 12.5321 4.47472 12.5366 4.60191C12.5366 4.79316 12.6004 4.90938 12.7279 4.95064C12.9107 5.00261 13.1005 5.02539 13.2904 5.01815H15.0904C15.0153 5.12313 14.9179 5.24688 14.7978 5.38939L14.3366 5.90688L13.7123 6.58187L12.9866 7.38622C12.7354 7.66748 12.5704 7.85498 12.4917 7.9487C12.3131 8.16562 12.3353 8.48433 12.5423 8.67431C12.6907 8.78611 12.8746 8.84004 13.0598 8.82619H16.3447C16.5018 8.8385 16.6581 8.79245 16.7834 8.69682C16.879 8.61337 16.9326 8.49179 16.9297 8.36496C16.9345 8.23283 16.881 8.10528 16.7834 8.01621Z" fill="white"/>
<path d="M21.7617 10.8906C21.6633 10.8118 21.5386 10.7736 21.413 10.7837H19.523L21.2948 8.80372L21.4636 8.61811L21.5704 8.48873C21.6007 8.4471 21.6251 8.40176 21.6436 8.35374C21.6649 8.30191 21.6764 8.24664 21.6773 8.19062C21.6915 8.05933 21.6277 7.93184 21.5142 7.86438C21.3664 7.79645 21.2042 7.76551 21.0417 7.77437H18.8143C18.6969 7.76783 18.5811 7.80375 18.488 7.87562C18.4102 7.94101 18.3667 8.03846 18.3699 8.13998C18.3699 8.28996 18.4205 8.38377 18.5218 8.42125C18.6682 8.4618 18.82 8.47889 18.9718 8.47185H20.4118C20.3555 8.55623 20.2767 8.65185 20.1755 8.76999L19.8043 9.18623L19.3205 9.74869L18.758 10.39C18.5555 10.6149 18.4224 10.7687 18.3587 10.8512C18.2261 11.0212 18.2432 11.2638 18.3981 11.4137C18.5161 11.5015 18.662 11.5435 18.8087 11.5318H21.4186C21.5433 11.5418 21.6674 11.5058 21.7673 11.4305C21.8417 11.3631 21.8828 11.2665 21.8799 11.1662C21.8824 11.0615 21.8393 10.9609 21.7617 10.8906Z" fill="white"/>
<path d="M27.6621 7.72938C27.5398 7.63163 27.3851 7.58347 27.2289 7.59437H24.8497L27.0715 5.1138L27.2796 4.88319L27.4146 4.72006C27.4517 4.6679 27.482 4.61115 27.5046 4.55132C27.5301 4.48684 27.5434 4.41814 27.544 4.34882C27.5597 4.18478 27.4784 4.02659 27.3358 3.94382C27.151 3.85903 26.9483 3.82043 26.7453 3.83134H23.9554C23.808 3.82128 23.662 3.86529 23.5447 3.95508C23.4479 4.03754 23.3939 4.15975 23.3985 4.28693C23.3985 4.47819 23.4622 4.59441 23.5897 4.63569C23.7725 4.68765 23.9623 4.71043 24.1522 4.70319H25.9521C25.8771 4.80817 25.7797 4.93191 25.6596 5.07442L25.1928 5.60316L24.5853 6.27815L23.8597 7.08251C23.6085 7.36375 23.4435 7.55126 23.3647 7.64499C23.1861 7.86191 23.2083 8.18062 23.4153 8.3706C23.5637 8.48239 23.7477 8.53631 23.9328 8.52248H27.2121C27.3709 8.54244 27.5314 8.5023 27.6621 8.40997C27.7577 8.32651 27.8112 8.20495 27.8084 8.07812C27.8132 7.94599 27.7597 7.81845 27.6621 7.72938Z" fill="white"/>
<path d="M25.7214 17.2016C25.5612 17.0358 25.3159 16.9845 25.1027 17.0723C19.0061 19.596 12.018 16.6998 9.4942 10.6032C8.21264 7.50732 8.28999 4.01554 9.70738 0.97952C9.8402 0.698696 9.72018 0.363386 9.43936 0.230569C9.29522 0.162367 9.12887 0.158641 8.98178 0.220162C2.29795 2.96573 -0.894655 10.6098 1.85091 17.2936C4.59648 23.9774 12.2405 27.17 18.9244 24.4245C21.9728 23.1722 24.4364 20.8158 25.8227 17.8259C25.9202 17.6168 25.8801 17.3693 25.7214 17.2016ZM13.9598 24.289C7.35218 24.2879 1.9966 18.9304 1.99772 12.3228C1.99843 7.9841 4.34808 3.9858 8.13804 1.87387C7.68925 3.20598 7.46123 4.6025 7.46306 6.00815C7.46341 13.237 13.3239 19.0969 20.5528 19.0966C21.7643 19.0965 22.9699 18.9283 24.1352 18.5966C21.9538 22.1238 18.1069 24.2758 13.9598 24.289Z" fill="white"/>
</svg>
