<?xml version="1.0" encoding="UTF-8"?><svg id="_レイヤー_2" xmlns="http://www.w3.org/2000/svg" width="244" height="263" viewBox="0 0 260 263"><defs><style>.cls-1{fill:#e9952d;}.cls-2{fill:#fff;}.cls-3{fill:#aa6a2a;}.cls-4{fill:#cc7427;}.cls-5{fill:#354ef2;}.cls-6{fill:#2f3fc5;}.cls-7,.cls-8{fill:#4b89f8;}.cls-8{isolation:isolate;opacity:.19;}</style></defs><g id="_レイヤー_1-2"><g id="_グループ_3230"><circle id="_楕円形_174" class="cls-8" cx="130.31" cy="122.02" r="122"/><circle id="_楕円形_175" class="cls-8" cx="130.31" cy="122.02" r="111"/><circle id="_楕円形_176" class="cls-7" cx="130.31" cy="122.02" r="97"/></g><path id="_パス_9040" class="cls-3" d="m222.22,147.29c.48-1.8,2.33-2.87,4.14-2.38s2.87,2.33,2.38,4.14c-.48,1.8-2.33,2.87-4.13,2.39s-2.87-2.33-2.39-4.13c0,0,0,0,0,0Z"/><path id="_パス_9041" class="cls-3" d="m233.77,163.84c-3.42-1.88-6.73-4.76-8.27-8.43-.77-1.64-1.01-3.48-.68-5.26.18-.59.8-.92,1.39-.74.28.08.51.27.65.53.28.54.31,1.2.58,1.75.94,1.8,2.46,3.23,4.32,4.05,1.02.5,2.08.89,3.18,1.17.72.09,1.42.32,2.06.66,3.36,2.3.58,7.68-3.24,6.27Z"/><path id="_パス_9042" class="cls-1" d="m235.19,150.77c.48-1.8-.59-3.65-2.39-4.13-1.8-.48-3.65.59-4.13,2.39-.48,1.8.59,3.65,2.39,4.13s3.65-.59,4.13-2.39h0Z"/><path id="_パス_9043" class="cls-4" d="m232.29,151.48c-1.42-.33-3.31-1.29-3.3-3,0-.08,0-.17.01-.25-.14.25-.26.52-.33.8-.49,1.8.58,3.65,2.38,4.14,1.7.46,3.48-.47,4.06-2.14-.84.52-1.86.68-2.82.45Z"/><path id="_パス_9044" class="cls-1" d="m218.13,152.32c.67.12,1.34.46,2.02.61,1.12.27,2.26.41,3.41.41,2.03.09,4.01-.6,5.54-1.92.38-.37.77-.86,1.35-.85.62.03,1.1.56,1.08,1.18,0,.18-.06.36-.15.52-.85,1.87-2.23,3.45-3.98,4.52-1.84,1.08-3.86,1.81-5.97,2.17-1.58.29-3.83.8-5.37.11-3.71-1.66-1.95-7.45,2.06-6.75h0Z"/><path id="_パス_9045" class="cls-1" d="m259.84,181.8c-.47-4.39-3.55-15.78-6.27-16.51l-54.52-14.62c-2.72-.73-11.09,7.59-13.69,11.16s-2.99,14.49-2.99,14.49l41.09-7.72,31.72,27.25s5.12-9.66,4.65-14.05Z"/><path id="_パス_9046" class="cls-4" d="m256.59,189.72c.45-6.35.37-14.19-5.5-18.15-3.71-2.38-7.78-4.14-12.06-5.18-4.96-1.36-27.3-7.68-33.49-8.81-3.2-.69-6.52-.66-9.71.07-1.81,1.02-3.55,2.17-5.2,3.44-.61.54-1.21,1.09-1.79,1.67-.15.16-.29.32-.44.49l-.06.07c-1.22,3.09-2.9,5.98-4.99,8.57-.04.09-.08.18-.11.26-.28.92-.54,1.86-.8,2.79-.06.86-.08,1.39-.08,1.39l41.09-7.72,31.72,27.25s.31-.59.77-1.54c.31-1.51.52-3.04.64-4.58Z"/><path id="_パス_9047" class="cls-5" d="m255.53,194.55c.83-11.86-3.2-21.78-8.98-23.33-5.75-1.54-21.9-6.43-22.05-6.48h-.01c-.16-.04-16.59-3.88-22.34-5.42s-14.23,5.03-19.44,15.71c-5.21,10.68-14.19,21.7-9.31,33.61,4.88,11.9,21.94,17,33.9,20.21h0c11.96,3.21,29.28,7.32,39.46-.54s7.92-21.9,8.76-33.75Z"/><path id="_パス_9048" class="cls-6" d="m201.84,161.22c3.14.75,6.22,1.7,9.24,2.84,1.23.43,2.46.85,3.7,1.26,6.05,1.45,12.18,2.54,18.15,4.35,5.93,1.8,12.29,4.01,17.14,8.02,1.78,1.44,3.32,3.15,4.55,5.08,0-.06.01-.11.02-.17-1.46-6.06-4.42-10.41-8.08-11.39-5.75-1.54-21.9-6.43-22.05-6.48h0c-.16-.04-16.59-3.88-22.34-5.42-2.28-.47-4.66-.07-6.67,1.12-.14.24-.27.48-.41.71,2.05-.84,4.77-.35,6.76.08Z"/><path id="_パス_9049" class="cls-6" d="m255.4,196.72c-.16.69-.33,1.37-.53,2.05-1.22,4.19-3.31,8.3-6.73,11.13-1.57,1.47-3.46,2.56-5.52,3.2-1.96.36-3.95.55-5.95.56-3.82.2-7.55,2.29-11.39,1.06-3.48-1.12-6.18-3.89-9.67-4.94-4.47-1.35-9.18-.9-13.71-1.84-3.18-.62-6.17-1.95-8.77-3.89-10.23-7.78-10.55-23.1-5.91-34.04.72-1.7,1.53-3.39,2.4-5.06-2.82,2.98-5.15,6.38-6.91,10.07-5.21,10.68-14.19,21.7-9.31,33.61,4.88,11.9,21.94,17,33.9,20.21h0c11.96,3.21,29.28,7.32,39.46-.54,9.57-7.39,8.15-20.23,8.64-31.59Z"/><g id="_グループ_3349"><circle id="_楕円形_178" class="cls-2" cx="213.84" cy="181.66" r="5.1"/><circle id="_楕円形_179" class="cls-2" cx="228.22" cy="187.77" r="5.1"/><path id="_パス_8864" d="m215.52,182.9c-.47,1.12-1.77,1.64-2.88,1.17-1.12-.47-1.64-1.77-1.17-2.88.47-1.12,1.76-1.64,2.88-1.17,1.12.47,1.65,1.76,1.18,2.88,0,0,0,0,0,0Z"/><path id="_パス_8865" d="m228.89,186.19c1.12.47,1.64,1.77,1.17,2.88s-1.77,1.64-2.88,1.17-1.64-1.77-1.17-2.88c.47-1.12,1.77-1.64,2.88-1.17h0Z"/><path id="_パス_8866" d="m210.17,190.02c.98-.74,3.93,2.42,7.93,4.33,3.94,1.97,8.06,1.42,8.39,2.6.14.52-.77,1.36-2.63,1.9-2.52.64-5.18.36-7.51-.77-2.27-1.07-4.18-2.78-5.5-4.92-.94-1.61-1.13-2.81-.69-3.13Z"/></g><g id="_グループ_3353"><g id="_グループ_3352"><path id="_パス_9050" class="cls-3" d="m45.83,15.65L3.52,62.12c-3.57,3.91-4.51,9.55-2.42,14.42l32.07,75.22c1.7,3.93,5.07,6.89,9.19,8.06l78.66,22.56c5.44,1.6,11.31-.22,14.9-4.62l42.96-58.46c3.34-4.17,3.91-9.91,1.46-14.65l-38.12-62.42c-1.74-3.37-4.75-5.91-8.37-7.05L60.59,11.8c-5.25-1.71-11.01-.2-14.76,3.85Z"/><path id="_パス_9051" class="cls-1" d="m54.95,4.59L13.29,51.25c-3.51,3.93-4.47,9.53-2.46,14.4l30.86,74.87c1.6,3.88,4.89,6.82,8.93,7.98l76.74,22c5.37,1.54,11.14-.32,14.59-4.71l40.15-50.92c3.29-4.18,3.88-9.87,1.52-14.64l-34.64-69.76c-1.65-3.33-4.59-5.85-8.13-6.98L69.4.65c-5.17-1.65-10.83-.11-14.45,3.94Z"/><path id="_パス_9052" class="cls-5" d="m123.01,162.02l-67.27-19.29c-4.17-1.18-7.57-4.22-9.21-8.23l-27.05-65.63c-2.05-5.03-1.07-10.79,2.53-14.86L58.54,13.11c3.73-4.18,9.57-5.77,14.91-4.07l62.63,20.02c3.65,1.18,6.67,3.77,8.39,7.21l30.37,61.15c2.42,4.92,1.81,10.79-1.57,15.1l-35.2,44.64c-3.56,4.54-9.52,6.46-15.06,4.86ZM71.86,13.02c-3.66-1.05-7.6.09-10.14,2.93h0L25.2,56.85c-2.52,2.84-3.21,6.88-1.77,10.4l27.05,65.63c1.15,2.81,3.52,4.93,6.44,5.76l67.27,19.29c3.87,1.12,8.04-.22,10.53-3.4l35.2-44.64c2.37-3.02,2.79-7.12,1.1-10.56l-30.37-61.16c-1.2-2.4-3.31-4.22-5.87-5.04l-62.63-20.02c-.1-.03-.19-.06-.29-.09h0Z"/><g id="_グループ_3351"><path id="_パス_9053" class="cls-5" d="m77.07,74.95l14.49,31.73-6.51,2.87-24.24-13.06,9.13,19.71-7.54,3.32-14.91-32.02,6.67-2.83,24.58,13.49-9.19-20.02,7.51-3.19Z"/><path id="_パス_9054" class="cls-5" d="m108.57,61.58l2.44,5.45-15.97,6.82,3.55,7.85,14.28-6.15,2.41,5.37-14.24,6.18,5.81,12.85-7.7,3.39-14.38-31.66,23.81-10.1Z"/><path id="_パス_9055" class="cls-5" d="m138.39,48.93l2.37,5.4-10.18,4.35,11.4,25.81-7.47,3.29-11.48-25.87-10.33,4.41-2.44-5.45,28.13-11.94Z"/></g></g></g></g></svg>