<svg width="125" height="74" viewBox="0 0 125 74" fill="none" xmlns="http://www.w3.org/2000/svg">
<path d="M53.0142 7.00903L55.2071 17.3258L19.8732 24.8363L17.7096 14.5133L3.05223 17.6288C1.7227 17.9114 0.873835 19.2181 1.15643 20.5476L2.83767 28.4573L11.5224 69.3157C11.805 70.6452 13.112 71.494 14.4416 71.2114L26.6915 68.6076L64.4036 60.5916L78.963 57.4969L79.0609 57.4761L67.6716 3.89351L53.0142 7.00903Z" fill="#2D24D3"/>
<path d="M19.377 67.6461L10.6923 26.7877L9.01102 18.8781C8.72842 17.5486 9.577 16.2419 10.9065 15.9593L9.6171 16.2333C8.2876 16.5159 7.43902 17.8226 7.72161 19.1521L9.40286 27.0618L18.0876 67.9202C18.3702 69.2496 19.6769 70.0985 21.0064 69.8159L22.2958 69.5419C20.9663 69.8245 19.6596 68.9756 19.377 67.6461Z" fill="#1D19BC"/>
<path d="M61.4404 11.7572L27.7741 18.9132C26.0464 19.2805 24.3481 18.1776 23.9809 16.4499C23.6136 14.7221 24.7165 13.0238 26.4443 12.6566L60.1105 5.5006C61.8383 5.13335 63.5365 6.23623 63.9037 7.964C64.271 9.69174 63.1682 11.39 61.4404 11.7572Z" fill="#004793"/>
<path d="M60.202 7.92784L27.3483 14.9111C26.8735 15.012 26.4069 14.709 26.306 14.2342C26.2051 13.7595 26.5081 13.2928 26.9829 13.1919L59.8366 6.20866C60.3111 6.1078 60.7779 6.41079 60.8788 6.88553C60.9797 7.36032 60.6765 7.82698 60.202 7.92784Z" fill="white"/>
<path d="M67.6717 3.89356L69.1548 10.8711C69.5468 12.7152 68.3695 14.5281 66.5254 14.9201L35.492 21.5164C33.6476 21.9085 31.835 20.7311 31.443 18.887L29.9599 11.9094L17.7097 14.5133C16.3802 14.7959 15.5313 16.1027 15.8139 17.4322L17.4951 25.3418L26.1799 66.2002C26.4625 67.5297 27.7695 68.3785 29.099 68.0959L91.3112 54.8723C92.6407 54.5897 93.4895 53.2826 93.2069 51.9532L82.841 3.18513C82.5584 1.85562 81.2514 1.0071 79.9219 1.28969L67.6717 3.89356Z" fill="#3E52F9"/>
<path d="M31.7008 39.6314C30.4182 33.5971 34.2701 27.6657 40.3043 26.3831L64.108 21.3234C70.1422 20.0408 76.0737 23.8928 77.3563 29.927L79.4109 39.5933C80.6935 45.6275 76.8416 51.559 70.8074 52.8416L47.0038 57.9012C40.9696 59.1838 35.038 55.3319 33.7554 49.2976L31.7008 39.6314Z" fill="#2D24D3"/>
<path d="M72.4681 22.8918L77.8069 48.0089C78.1827 49.7768 77.0545 51.5139 75.2895 51.8891L39.2786 59.5434C37.5107 59.9192 35.7735 58.7911 35.3978 57.0232L30.059 31.9061C29.6832 30.1382 30.8113 28.401 32.5792 28.0253L68.5901 20.3709C70.3552 19.9957 72.0923 21.1239 72.4681 22.8918Z" fill="#3E29F9"/>
<rect x="50.5659" y="33.3016" width="6.70895" height="14.4207" transform="rotate(-12 50.5659 33.3016)" fill="white"/>
<rect x="60.1265" y="46.0123" width="6.70897" height="14.4207" transform="rotate(78 60.1265 46.0123)" fill="white"/>
<path d="M40.415 67.3358L32.7504 68.965C31.8808 69.1498 31.0261 68.5948 30.8413 67.7255L41.6547 65.427C41.8394 66.2964 41.2843 67.151 40.415 67.3358Z" fill="#1F323F"/>
<path d="M88.6882 57.075L81.0236 58.7042C80.1542 58.8889 79.2995 58.3339 79.1147 57.4646L89.9281 55.1662C90.1129 56.0355 89.5578 56.8901 88.6882 57.075Z" fill="#1F323F"/>
<path d="M24.6144 70.6944L16.9501 72.3235C16.0805 72.5083 15.2258 71.9533 15.041 71.084L25.8543 68.7855C26.0391 69.6549 25.4841 70.5095 24.6144 70.6944Z" fill="#111E28"/>
<path d="M72.8877 60.4336L65.2231 62.0627C64.3535 62.2476 63.4987 61.6926 63.314 60.8232L74.1273 58.5248C74.3121 59.3941 73.757 60.2488 72.8877 60.4336Z" fill="#111E28"/>
<path d="M109.253 22.0837C108.041 23.8143 108.463 26.2082 110.194 27.42L112.867 29.2919L117.262 23.0146L114.589 21.1427C112.858 19.9309 110.464 20.353 109.253 22.0837Z" fill="#3E52F9"/>
<path d="M113.825 29.963L116.499 31.8349C118.229 33.0467 120.623 32.6246 121.835 30.894C123.047 29.1634 122.625 26.7695 120.894 25.5577L118.221 23.6858L113.825 29.963Z" fill="#3E52F9"/>
</svg>
