<svg width="29" height="30" viewBox="0 0 29 30" fill="none" xmlns="http://www.w3.org/2000/svg">
<path d="M14.7502 6.36975C9.87154 6.36975 5.90234 10.3389 5.90234 15.2177C5.90234 20.0964 9.87154 24.0656 14.7502 24.0656C19.629 24.0656 23.5981 20.0964 23.5981 15.2177C23.5981 10.3389 19.629 6.36975 14.7502 6.36975ZM14.7502 22.9544C10.4842 22.9544 7.01351 19.4837 7.01351 15.2177C7.01351 10.9516 10.4842 7.48092 14.7502 7.48092C19.0163 7.48092 22.487 10.9516 22.487 15.2177C22.487 19.4837 19.0163 22.9544 14.7502 22.9544Z" fill="white"/>
<path d="M14.7499 4.73342C15.0567 4.73342 15.3055 4.48468 15.3055 4.17784V1.55033C15.3055 1.24349 15.0567 0.994751 14.7499 0.994751C14.4431 0.994751 14.1943 1.24349 14.1943 1.55033V4.17784C14.1943 4.48468 14.4431 4.73342 14.7499 4.73342Z" fill="white"/>
<path d="M14.7499 25.7018C14.4431 25.7018 14.1943 25.9506 14.1943 26.2573V28.8849C14.1943 29.1917 14.4431 29.4405 14.7499 29.4405C15.0567 29.4405 15.3055 29.1917 15.3055 28.8849V26.2573C15.3055 25.9506 15.0567 25.7018 14.7499 25.7018Z" fill="white"/>
<path d="M8.74959 5.93464C8.903 6.20038 9.2428 6.29143 9.50854 6.13801C9.77428 5.98459 9.86534 5.6448 9.71191 5.37906L8.39813 3.10357C8.24472 2.83783 7.90494 2.74679 7.63922 2.90021C7.37347 3.05364 7.28244 3.39342 7.43585 3.65915L8.74959 5.93464Z" fill="white"/>
<path d="M20.7517 24.5005C20.5983 24.2348 20.2585 24.1438 19.9927 24.2971C19.727 24.4506 19.636 24.7904 19.7894 25.0561L21.1032 27.3316C21.2565 27.5974 21.5964 27.6883 21.8621 27.5349C22.1278 27.3816 22.2188 27.0417 22.0654 26.7761L20.7517 24.5005Z" fill="white"/>
<path d="M5.46735 9.21651L3.19186 7.90278C2.92614 7.74935 2.58635 7.8404 2.43293 8.10612C2.2795 8.37185 2.37055 8.71163 2.63627 8.86504L4.91177 10.1788C5.17751 10.3322 5.5173 10.2412 5.67072 9.97546C5.82414 9.70972 5.73309 9.36993 5.46735 9.21651Z" fill="white"/>
<path d="M26.8638 21.5701L24.5884 20.2563C24.3226 20.1029 23.9828 20.1939 23.8294 20.4597C23.676 20.7254 23.767 21.0652 24.0327 21.2186L26.3082 22.5323C26.574 22.6857 26.9137 22.5948 27.0672 22.329C27.2206 22.0633 27.1296 21.7234 26.8638 21.57V21.5701Z" fill="white"/>
<path d="M4.26601 15.2176C4.26601 14.9107 4.01727 14.662 3.71043 14.662H1.08292C0.776086 14.662 0.527344 14.9107 0.527344 15.2176C0.527344 15.5244 0.776086 15.7732 1.08292 15.7732H3.71043C4.01727 15.7732 4.26601 15.5244 4.26601 15.2176Z" fill="white"/>
<path d="M28.4175 14.662H25.7899C25.4832 14.662 25.2344 14.9107 25.2344 15.2176C25.2344 15.5244 25.4832 15.7732 25.7899 15.7732H28.4175C28.7243 15.7732 28.9731 15.5244 28.9731 15.2176C28.9731 14.9107 28.7243 14.662 28.4175 14.662Z" fill="white"/>
<path d="M4.91177 20.2563L2.63628 21.5701C2.37055 21.7234 2.2795 22.0633 2.43293 22.329C2.58635 22.5948 2.92613 22.6857 3.19187 22.5323L5.46736 21.2186C5.7331 21.0652 5.82414 20.7254 5.67072 20.4597C5.51731 20.1939 5.17751 20.1029 4.91177 20.2563Z" fill="white"/>
<path d="M24.3122 10.2533C24.4096 10.2533 24.5052 10.2276 24.5894 10.1788L26.8649 8.86506C27.1307 8.71163 27.2217 8.37185 27.0683 8.10611C26.9148 7.84038 26.5751 7.74936 26.3094 7.90278L24.0339 9.21651C23.8159 9.34223 23.7097 9.59877 23.7749 9.8418C23.8401 10.0848 24.0606 10.2537 24.3122 10.2533Z" fill="white"/>
<path d="M9.50851 24.2972C9.24279 24.1438 8.90302 24.2348 8.7496 24.5005L7.43586 26.776C7.28243 27.0417 7.37348 27.3816 7.6392 27.535C7.90493 27.6884 8.24471 27.5973 8.39814 27.3317L9.71191 25.0561C9.8653 24.7903 9.77425 24.4506 9.50851 24.2972Z" fill="white"/>
<path d="M19.9927 6.13798C20.2585 6.29139 20.5983 6.20035 20.7517 5.93464L22.0654 3.65915C22.2189 3.39342 22.1278 3.05364 21.862 2.90022C21.5964 2.74679 21.2565 2.83783 21.1032 3.10356L19.7894 5.37905C19.636 5.64479 19.727 5.98457 19.9927 6.13798Z" fill="white"/>
</svg>
